# Blender 3.5.1
# www.blender.org
mtllib rock.mtl
o Cube
v -1.913848 -2.475983 1.913888
v -1.461532 2.350366 2.706349
v -0.993286 -2.809857 -2.036894
v -0.970223 2.647239 -0.579272
v 3.213615 -2.059356 3.476215
v 0.819290 2.309669 3.064083
v 2.241812 -2.719033 -1.071399
v 0.378509 2.473226 -0.581842
v -1.647487 -2.664637 -0.123706
v -1.508084 2.494625 0.720509
v 2.982003 -2.547690 1.135945
v 0.892261 2.557472 0.749842
v -2.208783 -0.121961 2.609564
v -1.631348 -0.383982 -1.989251
v 2.442929 -0.018518 -0.464249
v 2.974622 -0.131784 3.655102
v 2.944700 -0.228443 1.667425
v -1.937330 -0.211571 0.363452
v -1.755824 -2.546156 0.736845
v 1.589977 2.662731 1.718928
v -1.320253 2.514018 1.703079
v 3.353897 -2.319840 2.350058
v -2.091810 -0.146501 1.450698
v 3.166684 -0.208472 2.679603
v -1.441553 2.544682 0.303636
v 2.494701 -2.681689 0.193530
v -1.247139 -2.766021 -0.941752
v 0.779630 2.405784 0.375104
v 2.601080 -0.154987 0.761069
v -1.698363 -0.331166 -0.728100
v -2.139091 1.065450 2.739963
v -1.917820 1.140391 -1.346865
v 1.470868 1.299869 -0.443364
v 2.394913 1.122296 3.429772
v 1.948069 1.204827 1.272596
v -2.109967 1.168818 0.630690
v -2.115641 1.114486 1.607610
v 2.094722 1.192292 2.259844
v 1.658225 1.165254 0.585727
v -1.992144 1.165548 -0.215943
v -1.163993 -1.721135 -2.192696
v 2.773865 -1.456706 -0.659839
v 3.341395 -1.039705 3.689310
v 3.420786 -1.448145 1.620286
v -1.682406 -1.514125 0.051408
v -2.075694 -1.308642 2.279510
v 3.752736 -1.275154 2.735738
v -1.889541 -1.376713 1.086692
v -1.291610 -1.673169 -0.997743
v 3.021773 -1.499150 0.638340
vn -0.8285 0.5213 -0.2045
vn 0.1823 0.2340 -0.9550
vn 0.7215 0.6480 0.2440
vn -0.1514 0.1038 0.9830
vn 0.0174 -0.9894 0.1443
vn -0.0349 0.9788 0.2018
vn 0.0191 0.9915 -0.1284
vn -0.0143 -0.9910 0.1332
vn 0.7886 0.4793 -0.3853
vn -0.8887 0.4495 0.0906
vn -0.9787 -0.1356 -0.1538
vn 0.8797 0.3304 -0.3420
vn -0.2173 -0.1872 0.9580
vn 0.8779 0.4330 0.2045
vn 0.3316 0.2270 -0.9157
vn -0.9520 -0.2995 -0.0632
vn 0.8750 0.4054 -0.2646
vn -0.9872 -0.1016 -0.1232
vn -0.8763 0.4813 -0.0197
vn -0.0394 0.9982 -0.0459
vn -0.0143 -0.9860 0.1664
vn 0.8609 0.3300 -0.3872
vn -0.9496 -0.1813 -0.2558
vn 0.9527 0.2727 -0.1340
vn 0.7754 0.6088 -0.1678
vn 0.0147 -0.9993 0.0344
vn 0.0851 0.9918 0.0949
vn -0.9039 0.4114 -0.1167
vn -0.9786 -0.1118 -0.1731
vn 0.8097 0.5844 -0.0538
vn 0.8186 0.5536 -0.1530
vn -0.9978 0.0258 -0.0609
vn -0.9951 -0.0617 -0.0769
vn 0.8063 0.5038 -0.3099
vn -0.1758 0.0016 0.9844
vn 0.8531 0.5199 -0.0446
vn 0.2709 0.3308 -0.9040
vn -0.9842 -0.1689 -0.0526
vn 0.9240 -0.3368 -0.1812
vn -0.9213 -0.0120 -0.3887
vn -0.9869 -0.0824 -0.1385
vn 0.9338 -0.2691 -0.2358
vn -0.9809 -0.1122 -0.1589
vn 0.3261 0.0526 -0.9439
vn 0.8944 -0.3191 0.3133
vn -0.2474 -0.2515 0.9357
vn 0.8940 -0.2193 -0.3907
vn -0.9866 -0.0357 -0.1594
vt 0.125000 0.750000
vt 0.375000 0.000000
vt 0.375000 1.000000
vt 0.625000 1.000000
vt 0.875000 0.750000
vt 0.625000 0.000000
vt 0.125000 0.500000
vt 0.375000 0.250000
vt 0.625000 0.250000
vt 0.875000 0.500000
vt 0.375000 0.750000
vt 0.625000 0.750000
vt 0.375000 0.500000
vt 0.625000 0.500000
vt 0.125000 0.625000
vt 0.375000 0.125000
vt 0.875000 0.625000
vt 0.625000 0.125000
vt 0.375000 0.625000
vt 0.625000 0.625000
vt 0.500000 0.000000
vt 0.500000 1.000000
vt 0.500000 0.250000
vt 0.500000 0.500000
vt 0.500000 0.750000
vt 0.500000 0.625000
vt 0.500000 0.125000
vt 0.125000 0.687500
vt 0.375000 0.062500
vt 0.625000 0.687500
vt 0.625000 0.062500
vt 0.875000 0.687500
vt 0.375000 0.687500
vt 0.500000 0.062500
vt 0.500000 0.687500
vt 0.875000 0.563462
vt 0.625000 0.186538
vt 0.375000 0.563462
vt 0.125000 0.563462
vt 0.375000 0.186538
vt 0.625000 0.563462
vt 0.500000 0.563462
vt 0.500000 0.186538
vt 0.562500 0.000000
vt 0.562500 1.000000
vt 0.562500 0.250000
vt 0.562500 0.500000
vt 0.562500 0.750000
vt 0.562500 0.625000
vt 0.562500 0.125000
vt 0.562500 0.062500
vt 0.562500 0.687500
vt 0.562500 0.563462
vt 0.562500 0.186538
vt 0.437500 0.250000
vt 0.437500 0.500000
vt 0.437500 0.750000
vt 0.437500 0.625000
vt 0.437500 0.125000
vt 0.437500 0.000000
vt 0.437500 1.000000
vt 0.437500 0.687500
vt 0.437500 0.062500
vt 0.437500 0.186538
vt 0.437500 0.563462
s 0
usemtl Material.001
f 40/54/1 25/37/1 4/9/1 32/46/1
f 32/46/2 4/9/2 8/14/2 33/47/2
f 38/52/3 20/30/3 6/12/3 34/48/3
f 34/48/4 6/12/4 2/4/4 31/45/4
f 19/28/5 22/33/5 5/11/5 1/1/5
f 20/30/6 21/32/6 2/5/6 6/12/6
f 28/41/7 25/36/7 10/17/7 12/20/7
f 27/39/8 26/38/8 11/19/8 9/15/8
f 39/53/9 28/41/9 12/20/9 35/49/9
f 37/51/10 21/31/10 10/18/10 36/50/10
f 48/63/11 23/34/11 18/27/11 45/59/11
f 50/65/12 29/42/12 17/26/12 44/58/12
f 43/57/13 16/25/13 13/22/13 46/61/13
f 47/62/14 24/35/14 16/25/14 43/57/14
f 41/55/15 14/23/15 15/24/15 42/56/15
f 49/64/16 30/43/16 14/23/16 41/55/16
f 44/58/17 17/26/17 24/35/17 47/62/17
f 46/60/18 13/21/18 23/34/18 48/63/18
f 31/44/19 2/6/19 21/31/19 37/51/19
f 12/20/20 10/17/20 21/32/20 20/30/20
f 9/15/21 11/19/21 22/33/21 19/28/21
f 35/49/22 12/20/22 20/30/22 38/52/22
f 45/59/23 18/27/23 30/43/23 49/64/23
f 42/56/24 15/24/24 29/42/24 50/65/24
f 33/47/25 8/14/25 28/41/25 39/53/25
f 3/7/26 7/13/26 26/38/26 27/39/26
f 8/14/27 4/10/27 25/36/27 28/41/27
f 36/50/28 10/18/28 25/37/28 40/54/28
f 18/27/29 36/50/29 40/54/29 30/43/29
f 15/24/30 33/47/30 39/53/30 29/42/30
f 17/26/31 35/49/31 38/52/31 24/35/31
f 13/21/32 31/44/32 37/51/32 23/34/32
f 23/34/33 37/51/33 36/50/33 18/27/33
f 29/42/34 39/53/34 35/49/34 17/26/34
f 16/25/35 34/48/35 31/45/35 13/22/35
f 24/35/36 38/52/36 34/48/36 16/25/36
f 14/23/37 32/46/37 33/47/37 15/24/37
f 30/43/38 40/54/38 32/46/38 14/23/38
f 7/13/39 42/56/39 50/65/39 26/38/39
f 9/16/40 45/59/40 49/64/40 27/40/40
f 1/2/41 46/60/41 48/63/41 19/29/41
f 11/19/42 44/58/42 47/62/42 22/33/42
f 27/40/43 49/64/43 41/55/43 3/8/43
f 3/8/44 41/55/44 42/56/44 7/13/44
f 22/33/45 47/62/45 43/57/45 5/11/45
f 5/11/46 43/57/46 46/61/46 1/3/46
f 26/38/47 50/65/47 44/58/47 11/19/47
f 19/29/48 48/63/48 45/59/48 9/16/48
