# Blender 3.5.1
# www.blender.org
mtllib untitled.mtl
o Plane.001
v 0.264261 1.085231 -0.244139
v 0.231982 -1.475936 0.050175
v 0.302085 -1.475936 -0.589024
v 0.070178 1.172858 0.103334
v 0.037899 -1.388309 0.397649
v 0.108002 -1.388309 -0.241550
v 0.371802 0.978055 0.153067
v 0.339524 -1.583111 0.447382
v 0.409627 -1.583111 -0.191817
v 0.177719 1.065682 0.500541
v 0.145441 -1.495484 0.794856
v 0.215544 -1.495484 0.155657
v -1.126990 1.065682 0.357450
v -1.159268 -1.495484 0.651764
v -1.089165 -1.495484 0.012565
v -0.932907 0.978055 0.009976
v -0.965185 -1.583111 0.304291
v -0.895082 -1.583111 -0.334909
v -1.040448 1.085231 -0.387231
v -1.072726 -1.475936 -0.092916
v -1.002623 -1.475936 -0.732115
v -1.234531 1.172858 -0.039757
v -1.266809 -1.388309 0.254558
v -1.196706 -1.388309 -0.384642
v -0.402429 1.065682 -0.505621
v -0.434707 -1.495484 -0.211307
v -0.364604 -1.495484 -0.850506
v -0.208346 0.978055 -0.853095
v -0.240624 -1.583111 -0.558781
v -0.170521 -1.583111 -1.197980
v -0.315887 1.085231 -1.250302
v -0.348165 -1.475935 -0.955987
v -0.278062 -1.475935 -1.595186
v -0.509970 1.172858 -0.902828
v -0.542248 -1.388309 -0.608513
v -0.472145 -1.388309 -1.247713
v -0.970276 1.172858 1.220236
v -0.879306 -1.388309 1.501994
v -1.076876 -1.388309 0.890066
v -0.935355 1.085231 0.823768
v -0.844386 -1.475936 1.105526
v -1.041955 -1.475936 0.493598
v -0.674706 0.978055 1.142203
v -0.583737 -1.583111 1.423961
v -0.781306 -1.583111 0.812032
v -0.709627 1.065682 1.538671
v -0.618658 -1.495484 1.820429
v -0.816227 -1.495484 1.208501
v -1.278275 1.172858 2.304218
v -1.187306 -1.388309 2.585977
v -1.384875 -1.388309 1.974048
v -1.243355 1.085231 1.907750
v -1.152385 -1.475936 2.189508
v -1.349955 -1.475936 1.577580
v -0.982706 0.978055 2.226185
v -0.891737 -1.583111 2.507943
v -1.089306 -1.583111 1.896014
v -1.017627 1.065682 2.622653
v -0.926657 -1.495484 2.904411
v -1.124226 -1.495484 2.292482
v 0.231418 1.065682 2.219383
v 0.322388 -1.495484 2.501141
v 0.124819 -1.495484 1.889212
v 0.266339 0.978055 1.822915
v 0.357308 -1.583111 2.104673
v 0.159739 -1.583111 1.492744
v 0.005690 1.085231 1.504480
v 0.096659 -1.475936 1.786238
v -0.100910 -1.475936 1.174309
v -0.029231 1.172858 1.900948
v 0.061739 -1.388309 2.182707
v -0.135830 -1.388309 1.570778
v -1.897030 1.172858 -0.110002
v -1.806060 -1.388309 0.171756
v -2.003629 -1.388309 -0.440172
v -1.862109 1.085231 -0.506470
v -1.771140 -1.475936 -0.224712
v -1.968709 -1.475936 -0.836640
v -1.601460 0.978055 -0.188035
v -1.510491 -1.583111 0.093723
v -1.708060 -1.583111 -0.518206
v -1.636381 1.065682 0.208433
v -1.545411 -1.495484 0.490191
v -1.742980 -1.495484 -0.121738
v -2.885426 1.065682 0.611703
v -2.794456 -1.495484 0.893461
v -2.992025 -1.495484 0.281532
v -2.850506 0.978055 0.215235
v -2.759536 -1.583111 0.496993
v -2.957105 -1.583111 -0.114936
v -3.111154 1.085231 -0.103200
v -3.020185 -1.475936 0.178558
v -3.217754 -1.475936 -0.433370
v -3.146074 1.172858 0.293268
v -3.055105 -1.388309 0.575026
v -3.252674 -1.388309 -0.036902
v -2.577426 1.065682 -0.472279
v -2.486457 -1.495484 -0.190521
v -2.684026 -1.495484 -0.802450
v -2.542506 0.978055 -0.868747
v -2.451536 -1.583111 -0.586989
v -2.649105 -1.583111 -1.198918
v -2.803154 1.085231 -1.187182
v -2.712185 -1.475936 -0.905424
v -2.909754 -1.475936 -1.517352
v -2.838075 1.172858 -0.790714
v -2.747106 -1.388309 -0.508956
v -2.944675 -1.388309 -1.120884
v -2.377769 1.172858 -2.913778
v -2.410047 -1.388309 -2.619463
v -2.339944 -1.388309 -3.258663
v -2.183686 1.085231 -3.261252
v -2.215965 -1.475936 -2.966937
v -2.145861 -1.475936 -3.606137
v -2.076145 0.978055 -2.864045
v -2.108423 -1.583111 -2.569731
v -2.038321 -1.583111 -3.208930
v -2.270228 1.065682 -2.516572
v -2.302506 -1.495484 -2.222257
v -2.232403 -1.495484 -2.861456
v -3.102331 1.172858 -2.050707
v -3.134609 -1.388309 -1.756392
v -3.064506 -1.388309 -2.395592
v -2.908247 1.085231 -2.398181
v -2.940526 -1.475936 -2.103866
v -2.870423 -1.475936 -2.743066
v -2.800706 0.978055 -2.000974
v -2.832985 -1.583111 -1.706660
v -2.762882 -1.583111 -2.345859
v -2.994789 1.065682 -1.653500
v -3.027067 -1.495484 -1.359185
v -2.956964 -1.495484 -1.998385
v -1.690081 1.065682 -1.510409
v -1.722359 -1.495484 -1.216094
v -1.652256 -1.495484 -1.855293
v -1.495997 0.978055 -1.857882
v -1.528276 -1.583111 -1.563568
v -1.458173 -1.583111 -2.202767
v -1.603539 1.085231 -2.255090
v -1.635817 -1.475936 -1.960775
v -1.565714 -1.475936 -2.599974
v -1.797621 1.172858 -1.907615
v -1.829900 -1.388309 -1.613301
v -1.759797 -1.388309 -2.252500
vn 0.9940 -0.0000 0.1090
vn 0.9516 -0.0000 -0.3072
vt 0.000000 0.000000
vt 1.000000 0.000000
vt 1.000000 1.000000
vt 0.000000 0.000000
vt 1.000000 0.000000
vt 1.000000 1.000000
vt 0.000000 0.000000
vt 1.000000 0.000000
vt 1.000000 1.000000
vt 0.000000 0.000000
vt 1.000000 0.000000
vt 1.000000 1.000000
vt 0.000000 0.000000
vt 1.000000 0.000000
vt 1.000000 1.000000
vt 0.000000 0.000000
vt 1.000000 0.000000
vt 1.000000 1.000000
vt 0.000000 0.000000
vt 1.000000 0.000000
vt 1.000000 1.000000
vt 0.000000 0.000000
vt 1.000000 0.000000
vt 1.000000 1.000000
vt 0.000000 0.000000
vt 1.000000 0.000000
vt 1.000000 1.000000
vt 0.000000 0.000000
vt 1.000000 0.000000
vt 1.000000 1.000000
vt 0.000000 0.000000
vt 1.000000 0.000000
vt 1.000000 1.000000
vt 0.000000 0.000000
vt 1.000000 0.000000
vt 1.000000 1.000000
vt 0.000000 0.000000
vt 1.000000 0.000000
vt 1.000000 1.000000
vt 0.000000 0.000000
vt 1.000000 0.000000
vt 1.000000 1.000000
vt 0.000000 0.000000
vt 1.000000 0.000000
vt 1.000000 1.000000
vt 0.000000 0.000000
vt 1.000000 0.000000
vt 1.000000 1.000000
vt 0.000000 0.000000
vt 1.000000 0.000000
vt 1.000000 1.000000
vt 0.000000 0.000000
vt 1.000000 0.000000
vt 1.000000 1.000000
vt 0.000000 0.000000
vt 1.000000 0.000000
vt 1.000000 1.000000
vt 0.000000 0.000000
vt 1.000000 0.000000
vt 1.000000 1.000000
vt 0.000000 0.000000
vt 1.000000 0.000000
vt 1.000000 1.000000
vt 0.000000 0.000000
vt 1.000000 0.000000
vt 1.000000 1.000000
vt 0.000000 0.000000
vt 1.000000 0.000000
vt 1.000000 1.000000
vt 0.000000 0.000000
vt 1.000000 0.000000
vt 1.000000 1.000000
vt 0.000000 0.000000
vt 1.000000 0.000000
vt 1.000000 1.000000
vt 0.000000 0.000000
vt 1.000000 0.000000
vt 1.000000 1.000000
vt 0.000000 0.000000
vt 1.000000 0.000000
vt 1.000000 1.000000
vt 0.000000 0.000000
vt 1.000000 0.000000
vt 1.000000 1.000000
vt 0.000000 0.000000
vt 1.000000 0.000000
vt 1.000000 1.000000
vt 0.000000 0.000000
vt 1.000000 0.000000
vt 1.000000 1.000000
vt 0.000000 0.000000
vt 1.000000 0.000000
vt 1.000000 1.000000
vt 0.000000 0.000000
vt 1.000000 0.000000
vt 1.000000 1.000000
vt 0.000000 0.000000
vt 1.000000 0.000000
vt 1.000000 1.000000
vt 0.000000 0.000000
vt 1.000000 0.000000
vt 1.000000 1.000000
vt 0.000000 0.000000
vt 1.000000 0.000000
vt 1.000000 1.000000
vt 0.000000 0.000000
vt 1.000000 0.000000
vt 1.000000 1.000000
vt 0.000000 0.000000
vt 1.000000 0.000000
vt 1.000000 1.000000
vt 0.000000 0.000000
vt 1.000000 0.000000
vt 1.000000 1.000000
vt 0.000000 0.000000
vt 1.000000 0.000000
vt 1.000000 1.000000
vt 0.000000 0.000000
vt 1.000000 0.000000
vt 1.000000 1.000000
vt 0.000000 0.000000
vt 1.000000 0.000000
vt 1.000000 1.000000
vt 0.000000 0.000000
vt 1.000000 0.000000
vt 1.000000 1.000000
vt 0.000000 0.000000
vt 1.000000 0.000000
vt 1.000000 1.000000
vt 0.000000 0.000000
vt 1.000000 0.000000
vt 1.000000 1.000000
vt 0.000000 0.000000
vt 1.000000 0.000000
vt 1.000000 1.000000
vt 0.000000 0.000000
vt 1.000000 0.000000
vt 1.000000 1.000000
vt 0.000000 0.000000
vt 1.000000 0.000000
vt 1.000000 1.000000
vt 0.000000 0.000000
vt 1.000000 0.000000
vt 1.000000 1.000000
s 0
usemtl Material.001
f 1/1/1 2/2/1 3/3/1
f 4/4/1 5/5/1 6/6/1
f 7/7/1 8/8/1 9/9/1
f 10/10/1 11/11/1 12/12/1
f 13/13/1 14/14/1 15/15/1
f 16/16/1 17/17/1 18/18/1
f 19/19/1 20/20/1 21/21/1
f 22/22/1 23/23/1 24/24/1
f 25/25/1 26/26/1 27/27/1
f 28/28/1 29/29/1 30/30/1
f 31/31/1 32/32/1 33/33/1
f 34/34/1 35/35/1 36/36/1
f 37/37/2 38/38/2 39/39/2
f 40/40/2 41/41/2 42/42/2
f 43/43/2 44/44/2 45/45/2
f 46/46/2 47/47/2 48/48/2
f 49/49/2 50/50/2 51/51/2
f 52/52/2 53/53/2 54/54/2
f 55/55/2 56/56/2 57/57/2
f 58/58/2 59/59/2 60/60/2
f 61/61/2 62/62/2 63/63/2
f 64/64/2 65/65/2 66/66/2
f 67/67/2 68/68/2 69/69/2
f 70/70/2 71/71/2 72/72/2
f 73/73/2 74/74/2 75/75/2
f 76/76/2 77/77/2 78/78/2
f 79/79/2 80/80/2 81/81/2
f 82/82/2 83/83/2 84/84/2
f 85/85/2 86/86/2 87/87/2
f 88/88/2 89/89/2 90/90/2
f 91/91/2 92/92/2 93/93/2
f 94/94/2 95/95/2 96/96/2
f 97/97/2 98/98/2 99/99/2
f 100/100/2 101/101/2 102/102/2
f 103/103/2 104/104/2 105/105/2
f 106/106/2 107/107/2 108/108/2
f 109/109/1 110/110/1 111/111/1
f 112/112/1 113/113/1 114/114/1
f 115/115/1 116/116/1 117/117/1
f 118/118/1 119/119/1 120/120/1
f 121/121/1 122/122/1 123/123/1
f 124/124/1 125/125/1 126/126/1
f 127/127/1 128/128/1 129/129/1
f 130/130/1 131/131/1 132/132/1
f 133/133/1 134/134/1 135/135/1
f 136/136/1 137/137/1 138/138/1
f 139/139/1 140/140/1 141/141/1
f 142/142/1 143/143/1 144/144/1
